HIERARCHY
ROOT Hips
{
	OFFSET -3.958830 18.904000 13.208200
	CHANNELS 6 Xposition Yposition Zposition Zrotation Yrotation Xrotation 
	JOINT LHipJoint
	{
		OFFSET 0.000000 0.000000 0.000000
		CHANNELS 3 Zrotation Yrotation Xrotation
		JOINT LeftUpLeg
		{
			OFFSET 1.800000 -1.400000 0.085000
			CHANNELS 3 Zrotation Yrotation Xrotation
			JOINT LeftLeg
			{
				OFFSET 2.215000 -6.000000 0.000000
				CHANNELS 3 Zrotation Yrotation Xrotation
				JOINT LeftFoot
				{
					OFFSET 2.500000 -6.900000 0.000000
					CHANNELS 3 Zrotation Yrotation Xrotation
					JOINT LeftToeBase
					{
						OFFSET 0.200000 -0.500000 1.950000
						CHANNELS 3 Zrotation Yrotation Xrotation
						End Site
						{
							OFFSET 0.000000 0.000000 0.000000
						}
					}
				}
			}
		}
	}
	JOINT RHipJoint
	{
		OFFSET 0.000000 0.000000 0.000000
		CHANNELS 3 Zrotation Yrotation Xrotation
		JOINT RightUpLeg
		{
			OFFSET -1.800000 -1.400000 0.085000
			CHANNELS 3 Zrotation Yrotation Xrotation
			JOINT RightLeg
			{
				OFFSET -2.215000 -6.000000 0.000000
				CHANNELS 3 Zrotation Yrotation Xrotation
				JOINT RightFoot
				{
					OFFSET -2.500000 -6.900000 0.000000
					CHANNELS 3 Zrotation Yrotation Xrotation
					JOINT RightToeBase
					{
						OFFSET -0.200000 -0.500000 1.950000
						CHANNELS 3 Zrotation Yrotation Xrotation
						End Site
						{
							OFFSET 0.000000 0.000000 0.000000
						}
					}
				}
			}
		}
	}
	JOINT LowerBack
	{
		OFFSET 0.000000 0.000000 0.000000
		CHANNELS 3 Zrotation Yrotation Xrotation
		JOINT Spine
		{
			OFFSET -0.087000 1.940000 -0.288900
			CHANNELS 3 Zrotation Yrotation Xrotation
			JOINT Spine1
			{
				OFFSET 0.000000 1.950000 0.060000
				CHANNELS 3 Zrotation Yrotation Xrotation
				JOINT Neck
				{
					OFFSET 0.000000 0.000000 0.000000
					CHANNELS 3 Zrotation Yrotation Xrotation
					JOINT Neck1
					{
						OFFSET 0.000000 1.600000 0.340000
						CHANNELS 3 Zrotation Yrotation Xrotation
						JOINT Head
						{
							OFFSET 0.000000 1.667000 -0.240000
							CHANNELS 3 Zrotation Yrotation Xrotation
							End Site
							{
								OFFSET 0.000000 0.000000 0.000000
							}
						}
					}
				}
				JOINT LeftShoulder
				{
					OFFSET 0.000000 0.000000 0.000000
					CHANNELS 3 Zrotation Yrotation Xrotation
					JOINT LeftArm
					{
						OFFSET 2.700000 1.550000 -0.730000
						CHANNELS 3 Zrotation Yrotation Xrotation
						JOINT LeftForeArm
						{
							OFFSET 5.450000 0.000000 0.000000
							CHANNELS 3 Zrotation Yrotation Xrotation
							JOINT LeftHand
							{
								OFFSET 3.450000 0.000000 0.000000
								CHANNELS 3 Zrotation Yrotation Xrotation
								JOINT LeftHandIndex1
								{
									OFFSET 0.750000 0.000000 0.000000
									CHANNELS 3 Zrotation Yrotation Xrotation
									End Site
									{
										OFFSET 0.000000 0.000000 0.000000
									}
								}
							}
						}
					}
				}
				JOINT RightShoulder
				{
					OFFSET 0.000000 0.000000 0.000000
					CHANNELS 3 Zrotation Yrotation Xrotation
					JOINT RightArm
					{
						OFFSET -2.700000 1.550000 -0.730000
						CHANNELS 3 Zrotation Yrotation Xrotation
						JOINT RightForeArm
						{
							OFFSET -5.450000 0.000000 0.000000
							CHANNELS 3 Zrotation Yrotation Xrotation
							JOINT RightHand
							{
								OFFSET -3.450000 0.000000 0.000000
								CHANNELS 3 Zrotation Yrotation Xrotation
								JOINT RightHandIndex1
								{
									OFFSET -0.750000 0.000000 0.000000
									CHANNELS 3 Zrotation Yrotation Xrotation
									End Site
									{
										OFFSET 0.000000 0.000000 0.000000
									}
								}
							}
						}
					}
				}
			}
		}
	}
}
MOTION
Frames: 7
Frame Time: 0.016667
-4.630510 16.049930 -3.901960 177.574461 -68.084188 -177.395980 -15.543063 12.231178 3.418863 24.410896 1.855685 -27.957464 -5.936871 13.866819 36.832053 0.133227 8.275914 1.459707 0.733970 0.714510 0.494890 18.098228 -11.626404 1.212320 -29.469117 2.170343 -15.219409 -2.986912 -6.788347 33.635574 -0.475116 -5.789482 2.107224 0.508250 0.297790 0.292520 -5.879878 0.111375 -7.180857 14.119596 -0.853279 6.989506 -19.743170 2.258255 5.110307 -0.032674 -13.260429 -8.849320 -29.869906 31.470738 20.342016 0.626530 20.631500 -6.818830 -1.567616 14.479524 2.588534 -10.110886 25.418081 -1.820184 12.244107 0.299442 -0.138320 -4.092468 3.120139 0.170780 0.238650 0.080640 0.331790 0.412931 -5.010988 4.472773 -16.725932 -22.194546 5.022805 -15.838936 5.685747 -0.534609 2.637485 -1.931870 -0.045170 0.184100 -0.291170 -0.018970 
-4.547400 16.037480 -3.948450 178.011360 -67.111576 -177.597114 -15.557961 12.313724 3.489434 24.896361 1.654743 -28.084278 -5.824622 13.620617 36.348140 0.103849 8.209130 1.483845 0.723930 0.709970 0.467440 18.087551 -11.522929 1.232003 -28.429322 2.011844 -16.703617 -3.316950 -6.666632 34.732951 -0.469087 -5.783242 2.110738 0.511780 0.320150 0.285010 -5.688864 -0.180342 -7.242775 13.110961 -1.020597 7.846296 -18.743175 2.086620 4.566173 -0.323444 -13.411707 -9.165512 -30.892055 31.055688 19.224084 1.137250 19.705900 -6.908460 -1.404151 13.976268 2.491026 -11.874478 22.419323 -1.947472 12.554429 1.033675 -0.118274 -4.107691 3.100588 0.166410 0.238770 0.068260 0.335510 1.002493 -4.539918 4.553533 -16.512966 -23.147201 5.099887 -13.441911 5.415334 -0.547790 2.580716 -1.886369 -0.051700 0.207630 -0.274440 -0.005520 
-4.463210 16.067660 -4.012270 178.417394 -66.310794 -177.539175 -15.557600 12.337706 3.466491 25.735321 1.418694 -26.972218 -6.972024 13.085512 33.150323 0.062483 7.839050 1.628140 0.741170 0.754410 0.448210 18.105629 -11.407178 1.252069 -27.706640 1.685678 -17.942881 -3.011004 -6.801973 35.101156 -0.459212 -5.815782 2.108975 0.541210 0.358900 0.297280 -5.573436 -0.397982 -7.192434 12.732569 -1.981426 7.291841 -19.359503 1.206053 4.719263 -0.276201 -13.374880 -9.259459 -31.034357 31.805200 18.146814 1.565720 20.303900 -5.602390 -2.385660 12.692966 2.439060 -12.386037 19.508122 -1.534070 13.859981 5.517535 0.339112 -4.175934 3.119585 0.106770 0.280740 0.048190 0.374390 2.090025 -3.783148 4.489855 -15.574998 -20.811063 4.706606 -11.735516 4.753156 -0.723151 2.543986 -1.906166 -0.037200 0.197680 -0.302830 0.025550 
-4.343570 16.121210 -4.092610 179.828519 -65.598478 -178.330703 -15.559636 12.403517 3.460448 27.057397 1.261579 -25.296305 -7.950886 11.982988 28.109341 -0.004615 7.236173 1.851369 0.723040 0.735170 0.443900 18.098306 -11.267076 1.348295 -26.419999 1.517327 -19.617302 -2.200849 -7.112801 35.729639 -0.455562 -5.816395 2.119106 0.517620 0.365800 0.301400 -5.477437 -0.655856 -7.249418 12.371802 -2.668229 8.102900 -19.175461 0.277466 3.582066 -0.401624 -13.389475 -9.245581 -31.436103 31.285324 17.507559 0.878410 20.123010 -5.561940 -1.697575 13.080964 2.078043 -14.815411 16.307935 -1.785631 13.870657 0.583159 -0.016091 -4.127377 3.175030 0.086660 0.288410 0.046870 0.377180 1.712711 -4.478937 4.539163 -12.578708 -17.924092 3.790218 -10.258989 5.015706 -0.802732 2.556595 -1.850903 -0.026080 0.193590 -0.306830 0.036280 
-4.225800 16.195880 -4.188190 -178.112528 -65.388738 -179.501338 -15.578389 12.437703 3.522176 28.617393 1.056989 -23.508253 -8.714481 10.582991 22.082751 -0.053578 6.614768 2.076871 0.700630 0.696570 0.441930 18.078496 -11.064035 1.408191 -25.058672 1.391317 -20.498786 -0.738278 -7.526846 35.322525 -0.436882 -5.742878 2.147528 0.480170 0.348040 0.307720 -5.328908 -1.002820 -7.296929 12.184836 -3.344263 8.552480 -19.035435 -0.479860 3.086344 -0.153354 -13.277918 -9.629134 -31.609838 30.468788 17.227697 0.102150 20.053060 -5.105750 -1.916847 12.611674 1.822493 -15.999522 13.535399 -1.714318 12.940154 0.309222 -0.099746 -4.095647 3.204016 0.080050 0.282980 0.044530 0.369110 1.621804 -4.464777 4.991588 -8.928540 -16.903793 2.862926 -8.912783 5.675371 -0.852405 2.573306 -1.804577 -0.014530 0.153340 -0.312270 0.034080 
-4.092720 16.285670 -4.306120 -176.735714 -65.254458 -179.921115 -15.587130 12.309131 3.662632 30.042091 0.671586 -21.264837 -9.699121 9.001520 14.912408 -0.084038 6.107771 2.266248 0.719400 0.730450 0.440720 18.088283 -10.797554 1.464158 -24.186072 1.343445 -21.349654 1.288421 -8.054193 34.478165 -0.427547 -5.672825 2.162683 0.503560 0.340240 0.293990 -5.162183 -1.258741 -7.363345 11.340712 -3.787762 8.446883 -18.520526 -0.898783 3.289134 -0.358378 -13.247579 -9.755795 -32.094803 30.460116 16.923125 0.803000 19.709930 -5.125530 -2.933620 11.662649 1.838565 -17.255200 11.910764 -1.616879 12.579759 -0.041725 -0.158632 -4.058262 3.225490 0.073160 0.269870 0.046700 0.376750 3.179597 -3.844976 4.994266 -7.400545 -16.707382 2.528488 -7.090246 5.723043 -0.944748 2.549579 -1.769286 -0.010480 0.157650 -0.325220 0.043110 
-3.943380 16.382520 -4.419700 -175.110562 -65.010853 179.653854 -15.605441 12.131256 3.984207 31.530495 0.191201 -19.804865 -10.098244 7.638681 8.803476 -0.035478 5.919218 2.362846 0.686710 0.689950 0.408720 18.085119 -10.514260 1.498705 -22.969681 1.498854 -22.231804 2.579216 -8.106955 33.205101 -0.387075 -5.464016 2.250367 0.473040 0.356710 0.285830 -4.940079 -1.520905 -7.562998 10.335130 -3.740071 9.331141 -17.607974 -1.210711 1.740086 -0.205841 -13.107104 -9.681524 -31.946193 29.731588 16.874928 1.221670 19.272650 -4.414140 -4.526029 11.304883 1.260159 -18.562976 9.102117 -1.408028 13.765489 1.294435 0.004775 -4.072767 3.214114 0.070600 0.268930 0.031600 0.379770 4.609241 -3.803151 4.991469 -5.108735 -16.883326 1.972935 -6.038634 5.843146 -0.964666 2.557385 -1.717268 -0.016960 0.154090 -0.315980 0.052360 
